# xmcd
#
# Track frame offsets:
#	150
#	20102
#	38590
#	58627
#	83880
#	100592
#	121342
#	143190
#	161805
#	184435
#	206540
#	227207
#	249502
#	269972
#	288315
#
# Disc length: 4098 seconds
#
# Revision: 2
# Processed by: cddbd v1.5.2PL0 Copyright (c) Steve Scherf et al.
# Submitted via: EasyCDDAExtractor 15.2.5.1
#
DISCID=df10000f
DTITLE=邰正宵 - 一千零一夜
DYEAR=1995
DGENRE=Alternative
TTITLE0=心要讓你聽見
TTITLE1=一千零一夜
TTITLE2=苦了你
TTITLE3=絕對寳貝
TTITLE4=所有東西都在傷心
TTITLE5=用情太深
TTITLE6=為了愛時間可以倒流
TTITLE7=心太冷夢太真
TTITLE8=背叛自己
TTITLE9=着迷
TTITLE10=被你遺忘的花
TTITLE11=等你情愿愛上我
TTITLE12=想你想得好孤寂
TTITLE13=分心
TTITLE14=九佰九十九朵玫瑰
EXTD=YEAR: 1995\n
EXTT0=
EXTT1=
EXTT2=
EXTT3=
EXTT4=
EXTT5=
EXTT6=
EXTT7=
EXTT8=
EXTT9=
EXTT10=
EXTT11=
EXTT12=
EXTT13=
EXTT14=
PLAYORDER=
